<svg width="24" height="24" viewBox="0 0 24 24" fill="none" xmlns="http://www.w3.org/2000/svg">
<g id="Icon/backward">
<path id="Vector" d="M6.34315 17.6569C7.53776 18.8515 9.07989 19.6372 10.7485 19.9015C12.4172 20.1658 14.1266 19.895 15.6319 19.1281C17.1372 18.3611 18.3611 17.1372 19.1281 15.6319C19.895 14.1266 20.1658 12.4172 19.9015 10.7485C19.6372 9.0799 18.8515 7.53776 17.6569 6.34315C16.4622 5.14854 14.9201 4.36279 13.2515 4.0985C11.5828 3.83422 9.87337 4.10497 8.36808 4.87196C6.86278 5.63894 5.63893 6.86279 4.87195 8.36808M7 9.00001H4V6.00001M9 11L10 10V15M13.5 15C12.6716 15 12 14.3284 12 13.5V11.5C12 10.6716 12.6716 10 13.5 10C14.3284 10 15 10.6716 15 11.5V13.5C15 14.3284 14.3284 15 13.5 15Z" stroke="#18181B" stroke-width="1.5" stroke-linecap="round" stroke-linejoin="round"/>
</g>
</svg>
