<svg width="24" height="24" viewBox="0 0 24 24" fill="none" xmlns="http://www.w3.org/2000/svg">
<g id="Icon/control">
<g id="Vector">
<path d="M14.6424 5.30276C14.5651 4.56236 13.941 4 13.1966 4H10.8061C10.0614 4 9.4371 4.56255 9.35979 5.30318C9.25787 6.27962 8.23756 6.87655 7.33643 6.48694L7.24619 6.44792C6.54493 6.14473 5.72751 6.40673 5.33317 7.06109L4.20388 8.93501C3.81764 9.57593 3.99705 10.4068 4.61334 10.8312C5.4301 11.3937 5.42979 12.6002 4.61303 13.1627C3.99656 13.5873 3.8169 14.4185 4.20325 15.0596L5.33231 16.9331C5.72667 17.5875 6.54411 17.8495 7.2454 17.5463L7.3318 17.509C8.23486 17.1185 9.25736 17.7167 9.3595 18.6953C9.43697 19.4375 10.0626 20.0012 10.8089 20.0012H13.1938C13.9398 20.0012 14.5652 19.4377 14.6427 18.6957C14.7448 17.7175 15.767 17.1195 16.6697 17.5098L16.7561 17.5471C17.4572 17.8502 18.2744 17.5883 18.6686 16.9341L19.7976 15.0606C20.1841 14.4193 20.0044 13.5878 19.3877 13.1631C18.5707 12.6004 18.5704 11.3935 19.3874 10.8308C20.0039 10.4062 20.1834 9.57515 19.797 8.93402L18.6677 7.0601C18.2735 6.40595 17.4564 6.14403 16.7553 6.44713L16.6651 6.48614C15.7643 6.87563 14.7443 6.27889 14.6424 5.30276Z" stroke="white" stroke-width="1.5" stroke-linecap="round" stroke-linejoin="round"/>
<path d="M14.502 12.001C14.502 13.3817 13.3827 14.501 12.002 14.501C10.6212 14.501 9.50195 13.3817 9.50195 12.001C9.50195 10.6203 10.6212 9.50098 12.002 9.50098C13.3827 9.50098 14.502 10.6203 14.502 12.001Z" stroke="white" stroke-width="1.5" stroke-linecap="round" stroke-linejoin="round"/>
</g>
</g>
</svg>
