<svg width="24" height="24" viewBox="0 0 24 24" fill="none" xmlns="http://www.w3.org/2000/svg">
<g id="Icon/forward">
<path id="Vector" d="M17.6569 17.6569C16.4623 18.8515 14.9201 19.6372 13.2515 19.9015C11.5828 20.1658 9.87338 19.895 8.36808 19.1281C6.86279 18.3611 5.63894 17.1372 4.87196 15.6319C4.10497 14.1266 3.83422 12.4172 4.0985 10.7485C4.36279 9.0799 5.14854 7.53776 6.34315 6.34315C7.53776 5.14854 9.0799 4.36279 10.7485 4.0985C12.4172 3.83422 14.1266 4.10497 15.6319 4.87196C17.1372 5.63894 18.3611 6.86279 19.1281 8.36808M17 9.00001H20V6.00001M9.00001 11L10 10V15M13.5 15C12.6716 15 12 14.3284 12 13.5V11.5C12 10.6716 12.6716 10 13.5 10C14.3284 10 15 10.6716 15 11.5V13.5C15 14.3284 14.3284 15 13.5 15Z" stroke="#18181B" stroke-width="1.5" stroke-linecap="round" stroke-linejoin="round"/>
</g>
</svg>
