<svg width="24" height="24" viewBox="0 0 24 24" fill="none" xmlns="http://www.w3.org/2000/svg">
<g id="Icon/mic-off">
<path id="Subtract" fill-rule="evenodd" clip-rule="evenodd" d="M12 3.25C9.92893 3.25 8.25 4.92893 8.25 7V11C8.25 12.0355 8.66973 12.973 9.34835 13.6517L10.409 12.591C10.0018 12.1838 9.75 11.6213 9.75 11V7C9.75 5.75736 10.7574 4.75 12 4.75C13.2426 4.75 14.25 5.75736 14.25 7V8.75L15.75 7.25V7C15.75 4.92893 14.0711 3.25 12 3.25ZM15.7129 11.5298L12.5298 14.7129C14.1769 14.48 15.48 13.1769 15.7129 11.5298ZM8.28769 14.7123C7.33763 13.7622 6.75 12.4497 6.75 11C6.75 10.5858 6.41421 10.25 6 10.25C5.58579 10.25 5.25 10.5858 5.25 11C5.25 12.864 6.00552 14.5515 7.22703 15.773L8.28769 14.7123ZM9.84421 17.3984L11.074 16.1686C11.3746 16.2221 11.6841 16.25 12 16.25C14.8995 16.25 17.25 13.8995 17.25 11C17.25 10.5858 17.5858 10.25 18 10.25C18.4142 10.25 18.75 10.5858 18.75 11C18.75 14.4744 16.125 17.3357 12.75 17.7088V20C12.75 20.4142 12.4142 20.75 12 20.75C11.5858 20.75 11.25 20.4142 11.25 20V17.7088C10.764 17.6551 10.2935 17.5498 9.84421 17.3984Z" fill="#18181B"/>
<line id="Line 58" x1="19" y1="5.06066" x2="6.06066" y2="18" stroke="#18181B" stroke-width="1.5" stroke-linecap="round" stroke-linejoin="round"/>
</g>
</svg>
