<svg width="24" height="24" viewBox="0 0 24 24" fill="none" xmlns="http://www.w3.org/2000/svg">
<g id="Icon/sound">
<path id="Union" fill-rule="evenodd" clip-rule="evenodd" d="M7.61854 16H5C3.89543 16 3 15.1046 3 14V10C3 8.89543 3.89543 8 5 8H7.61793L12.3833 4.26645C13.0396 3.75222 14 4.21982 14 5.05361V18.9459C14 19.7797 13.0396 20.2473 12.3833 19.7331L7.61854 16ZM15.591 9.34835C15.8839 9.05546 16.3588 9.05546 16.6517 9.34835C16.9999 9.69657 17.2761 10.11 17.4645 10.5649C17.653 11.0199 17.75 11.5075 17.75 12C17.75 12.4925 17.653 12.9801 17.4645 13.4351C17.2761 13.89 16.9999 14.3034 16.6516 14.6517C16.3588 14.9445 15.8839 14.9445 15.591 14.6517C15.2981 14.3588 15.2981 13.8839 15.591 13.591C15.7999 13.3821 15.9657 13.134 16.0787 12.861C16.1918 12.5881 16.25 12.2955 16.25 12C16.25 11.7045 16.1918 11.4119 16.0787 11.139C15.9657 10.866 15.7999 10.6179 15.591 10.409C15.2981 10.1161 15.2981 9.64124 15.591 9.34835ZM18.4801 6.51992C18.1872 6.22703 17.7123 6.22703 17.4194 6.51992C17.1265 6.81282 17.1265 7.28769 17.4194 7.58058C17.9998 8.16095 18.4602 8.84995 18.7742 9.60823C19.0883 10.3665 19.25 11.1792 19.25 12C19.25 12.8208 19.0883 13.6335 18.7742 14.3918C18.4602 15.1501 17.9998 15.8391 17.4194 16.4194C17.1265 16.7123 17.1265 17.1872 17.4194 17.4801C17.7123 17.773 18.1872 17.773 18.4801 17.4801C19.1997 16.7604 19.7706 15.9061 20.1601 14.9658C20.5495 14.0255 20.75 13.0177 20.75 12C20.75 10.9823 20.5495 9.97448 20.1601 9.03421C19.7706 8.09393 19.1997 7.23958 18.4801 6.51992Z" fill="#18181B"/>
</g>
</svg>
