<svg width="24" height="24" viewBox="0 0 24 24" fill="none" xmlns="http://www.w3.org/2000/svg">
<g id="Icon/video-off">
<path id="Subtract" fill-rule="evenodd" clip-rule="evenodd" d="M18.9764 8.26627L17.25 9.99264V14.3333V16C17.25 16.6904 16.6904 17.25 16 17.25H9.99264L8.49264 18.75H16C17.5188 18.75 18.75 17.5188 18.75 16V15.608L20.6358 16.6556C20.8681 16.7847 21.1513 16.7812 21.3803 16.6464C21.6094 16.5116 21.75 16.2657 21.75 16V8C21.75 7.73426 21.6094 7.48836 21.3803 7.3536C21.1513 7.21883 20.8681 7.21533 20.6358 7.34438L18.9764 8.26627ZM4.33176 18.6682C3.1359 18.3697 2.25 17.2883 2.25 16V8C2.25 6.48122 3.48122 5.25 5 5.25H16C16.5028 5.25 16.974 5.38491 17.3795 5.62051L16.2291 6.77094C16.1548 6.75719 16.0782 6.75 16 6.75H5C4.30964 6.75 3.75 7.30964 3.75 8V16C3.75 16.6904 4.30964 17.25 5 17.25H5.75L4.33176 18.6682ZM20.25 14.7254L18.75 13.892V10.108L20.25 9.27464V14.7254Z" fill="#18181B"/>
<line id="Line 58" x1="19" y1="5.06066" x2="4.06066" y2="20" stroke="#18181B" stroke-width="1.5" stroke-linecap="round" stroke-linejoin="round"/>
</g>
</svg>
